<?xml version="1.0" encoding="UTF-8" ?>
<!DOCTYPE svg PUBLIC "-//W3C//DTD SVG 1.1//EN" "http://www.w3.org/Graphics/SVG/1.1/DTD/svg11.dtd">
<svg width="603pt" height="93pt" viewBox="0 0 2521 390" version="1.1" xmlns="http://www.w3.org/2000/svg">
<g id="#25e2ccff">
<path fill="#25e2cc" opacity="1.00" d=" M 2033.58 0.00 L 2125.31 0.00 C 2110.57 1.72 2096.70 10.21 2089.21 23.12 C 2079.01 39.95 2080.95 63.18 2094.11 77.89 C 2101.77 87.07 2113.06 92.47 2124.75 94.27 C 2099.51 94.21 2074.26 94.27 2049.02 94.25 C 2042.31 94.12 2035.56 94.65 2028.91 93.73 C 2016.60 92.02 2005.22 85.06 1997.89 75.08 C 1987.41 61.10 1985.77 41.17 1993.88 25.70 C 2001.25 10.82 2017.01 0.73 2033.58 0.00 Z" />
</g>
<g id="#003d5bff">
<path fill="#003d5b" opacity="1.00" d=" M 2125.31 0.00 L 2135.63 0.00 C 2149.54 1.98 2162.58 9.94 2169.94 22.02 C 2180.67 38.70 2179.20 62.17 2166.29 77.28 C 2156.44 89.49 2140.29 95.82 2124.75 94.27 C 2113.06 92.47 2101.77 87.07 2094.11 77.89 C 2080.95 63.18 2079.01 39.95 2089.21 23.12 C 2096.70 10.21 2110.57 1.72 2125.31 0.00 Z" />
<path fill="#003d5b" opacity="1.00" d=" M 1686.00 47.00 C 1709.25 47.00 1732.50 46.99 1755.76 47.01 C 1755.75 75.75 1755.75 104.50 1755.76 133.24 C 1786.83 133.25 1817.91 133.25 1848.99 133.24 C 1849.00 153.41 1849.00 173.59 1848.99 193.76 C 1817.91 193.75 1786.83 193.75 1755.76 193.76 C 1755.73 224.18 1755.78 254.60 1755.73 285.02 C 1755.59 293.38 1757.36 301.99 1762.02 309.05 C 1766.47 315.90 1773.79 320.43 1781.56 322.62 C 1797.47 326.97 1814.97 325.27 1829.70 317.80 C 1833.71 315.84 1837.51 313.49 1841.33 311.17 C 1849.54 328.90 1857.67 346.67 1866.05 364.32 C 1843.09 382.00 1813.64 389.63 1784.97 389.51 C 1764.15 389.92 1742.67 386.09 1724.65 375.22 C 1710.61 366.88 1699.46 353.96 1692.92 339.01 C 1687.44 326.76 1684.83 313.38 1684.09 300.03 C 1683.61 276.42 1684.73 252.77 1683.22 229.19 C 1680.67 194.69 1668.70 160.52 1646.82 133.49 C 1659.87 133.52 1672.92 133.47 1685.97 133.52 C 1686.04 104.68 1685.98 75.84 1686.00 47.00 Z" />
<path fill="#003d5b" opacity="1.00" d=" M 71.28 144.35 C 92.70 133.27 116.99 128.00 141.06 128.49 C 161.10 128.49 181.26 131.76 199.98 139.05 C 211.20 143.37 221.67 149.40 231.52 156.25 C 221.85 174.40 212.16 192.54 202.39 210.64 C 186.22 199.54 166.65 193.26 146.97 193.73 C 126.41 193.45 104.93 200.37 90.69 215.70 C 68.83 238.70 68.68 278.53 90.04 301.91 C 99.93 312.96 113.81 319.90 128.26 322.69 C 153.70 327.52 181.10 322.31 202.41 307.39 C 211.98 325.28 221.43 343.23 230.96 361.14 C 219.27 368.97 206.95 376.04 193.64 380.72 C 176.18 386.97 157.55 389.76 139.03 389.51 C 107.14 389.92 74.81 380.16 49.53 360.45 C 29.32 344.85 14.11 322.90 6.63 298.48 C -2.78 267.86 -0.97 233.71 12.67 204.62 C 24.68 178.68 45.85 157.29 71.28 144.35 Z" />
<path fill="#003d5b" opacity="1.00" d=" M 358.59 129.80 C 388.41 125.74 419.62 130.56 446.25 144.82 C 468.61 156.66 487.57 175.02 499.65 197.30 C 520.56 235.34 520.32 284.10 499.00 321.92 C 484.70 347.66 461.15 367.91 433.94 378.99 C 389.87 397.05 336.59 392.07 297.56 364.37 C 274.90 348.51 257.45 325.20 249.12 298.78 C 240.14 270.59 241.03 239.32 251.78 211.73 C 261.64 186.34 280.00 164.48 303.04 149.99 C 319.80 139.33 338.93 132.54 358.59 129.80 M 367.54 194.67 C 354.32 197.09 341.97 203.94 332.86 213.81 C 323.88 223.47 318.01 235.93 316.10 248.97 C 313.28 267.22 318.23 286.67 329.93 301.03 C 337.63 310.70 348.34 317.87 360.12 321.57 C 373.74 325.73 388.76 325.32 402.08 320.22 C 417.10 314.64 429.55 302.80 436.34 288.34 C 445.01 270.07 444.99 247.88 436.21 229.66 C 429.64 215.77 417.87 204.34 403.63 198.49 C 392.31 193.71 379.60 192.59 367.54 194.67 Z" />
<path fill="#003d5b" opacity="1.00" d=" M 635.69 144.77 C 654.51 133.06 677.00 128.09 699.02 128.48 C 720.99 128.43 743.33 133.99 761.70 146.30 C 777.52 156.84 789.86 172.25 797.36 189.67 C 805.28 207.66 808.16 227.46 808.25 247.00 C 808.23 292.92 808.30 338.85 808.21 384.77 C 784.29 384.67 760.36 384.89 736.44 384.66 C 736.55 341.81 736.52 298.96 736.45 256.11 C 736.45 238.30 731.30 219.46 718.01 206.93 C 695.70 185.91 656.03 189.33 636.92 213.02 C 627.41 224.37 623.06 239.33 623.02 253.98 C 622.97 297.57 623.02 341.16 622.99 384.76 C 599.08 384.74 575.16 384.76 551.25 384.75 C 551.25 300.92 551.25 217.08 551.25 133.25 C 568.48 133.24 585.70 133.26 602.93 133.24 C 603.69 147.32 604.75 161.39 605.55 175.47 C 612.84 162.94 623.33 152.34 635.69 144.77 Z" />
<path fill="#003d5b" opacity="1.00" d=" M 912.03 144.10 C 928.77 135.52 947.26 130.51 965.99 128.95 C 999.79 126.47 1035.14 132.53 1063.97 151.09 C 1066.57 152.78 1069.14 154.53 1071.75 156.23 C 1062.14 174.42 1052.43 192.56 1042.62 210.65 C 1026.68 199.66 1007.41 193.41 988.01 193.73 C 972.46 193.43 956.62 197.10 943.39 205.42 C 932.64 212.18 923.92 222.24 919.20 234.06 C 912.30 251.24 912.90 271.32 920.89 288.03 C 927.54 301.77 939.68 312.52 953.75 318.26 C 970.23 325.07 988.73 325.75 1006.14 322.66 C 1019.27 320.33 1031.66 314.82 1042.68 307.40 C 1052.25 325.30 1061.69 343.26 1071.25 361.16 C 1062.43 366.92 1053.43 372.48 1043.78 376.74 C 1028.73 383.50 1012.49 387.45 996.07 388.88 C 975.29 390.62 954.08 389.28 934.07 383.15 C 906.26 374.87 880.98 357.60 864.25 333.77 C 838.23 297.26 833.81 246.85 852.26 206.10 C 864.23 179.34 885.89 157.25 912.03 144.10 Z" />
<path fill="#003d5b" opacity="1.00" d=" M 1141.93 148.86 C 1163.27 135.23 1188.69 128.39 1213.95 128.49 C 1238.08 128.09 1262.60 133.93 1283.15 146.81 C 1307.62 161.89 1325.36 186.65 1333.56 214.04 C 1340.01 234.90 1341.32 257.11 1339.02 278.76 C 1277.53 278.74 1216.04 278.76 1154.55 278.75 C 1159.72 297.01 1173.30 312.39 1190.33 320.57 C 1210.50 330.51 1234.32 331.50 1255.91 326.02 C 1271.08 322.17 1284.51 313.61 1296.31 303.55 C 1306.30 320.71 1316.15 337.95 1326.02 355.18 C 1311.98 367.69 1295.00 376.66 1277.04 382.07 C 1259.21 387.42 1240.52 389.77 1221.92 389.51 C 1187.75 389.93 1153.06 378.48 1127.20 355.83 C 1105.85 337.43 1091.15 311.57 1086.09 283.85 C 1081.09 256.61 1084.30 227.79 1095.66 202.50 C 1105.47 180.64 1121.67 161.67 1141.93 148.86 M 1174.40 200.30 C 1164.64 208.66 1158.41 220.43 1155.06 232.70 C 1193.93 232.75 1232.82 232.84 1271.70 232.66 C 1270.68 225.95 1268.88 219.31 1265.67 213.32 C 1258.05 198.33 1242.54 188.13 1225.98 186.00 C 1207.89 183.84 1188.32 188.07 1174.40 200.30 Z" />
<path fill="#003d5b" opacity="1.00" d=" M 1472.95 138.04 C 1492.35 129.52 1513.99 127.22 1534.96 128.98 C 1553.91 130.62 1572.69 136.68 1588.25 147.78 C 1602.79 157.98 1614.14 172.43 1621.33 188.62 C 1629.61 207.18 1632.88 227.72 1632.50 247.96 C 1632.46 293.57 1632.57 339.18 1632.45 384.79 C 1608.55 384.71 1584.66 384.77 1560.77 384.76 C 1560.72 340.83 1560.77 296.90 1560.74 252.97 C 1560.40 235.41 1554.31 217.03 1540.65 205.34 C 1528.04 194.37 1510.14 191.09 1493.99 194.13 C 1479.61 196.62 1466.40 205.05 1458.23 217.15 C 1451.07 227.63 1447.60 240.38 1447.50 253.01 C 1447.50 296.92 1447.51 340.84 1447.49 384.76 C 1423.58 384.75 1399.67 384.75 1375.76 384.75 C 1375.75 300.92 1375.75 217.08 1375.76 133.25 C 1391.48 133.23 1407.21 133.29 1422.94 133.22 C 1424.31 133.42 1426.07 132.82 1427.28 133.69 C 1428.32 147.57 1429.02 161.50 1430.04 175.39 C 1439.69 158.61 1455.26 145.65 1472.95 138.04 Z" />
<path fill="#003d5b" opacity="1.00" d=" M 1985.43 143.38 C 2001.46 132.82 2020.91 128.12 2039.99 128.48 C 2046.95 128.44 2053.98 128.87 2060.76 130.54 C 2060.83 138.34 2059.48 146.15 2059.07 153.96 C 2057.68 169.93 2056.41 185.91 2054.96 201.88 C 2037.99 194.80 2018.26 195.50 2001.31 202.24 C 1985.54 208.52 1973.03 222.23 1968.36 238.56 C 1964.52 250.34 1965.65 262.84 1965.50 275.02 C 1965.53 311.57 1965.43 348.12 1965.55 384.67 C 1941.60 384.79 1917.64 384.84 1893.69 384.65 C 1893.84 300.85 1893.70 217.05 1893.76 133.25 C 1913.65 133.25 1933.55 133.25 1953.44 133.24 C 1954.36 149.31 1955.25 165.37 1956.15 181.44 C 1961.06 165.80 1971.73 152.28 1985.43 143.38 Z" />
<path fill="#003d5b" opacity="1.00" d=" M 2094.01 133.24 C 2117.92 133.26 2141.84 133.24 2165.75 133.25 C 2165.75 217.08 2165.75 300.92 2165.75 384.75 C 2141.83 384.76 2117.92 384.74 2094.01 384.76 C 2094.00 300.92 2093.99 217.08 2094.01 133.24 Z" />
<path fill="#003d5b" opacity="1.00" d=" M 2194.34 133.25 C 2222.14 133.26 2249.94 133.23 2277.74 133.26 C 2293.95 158.87 2310.05 184.55 2326.31 210.13 C 2343.13 184.43 2360.06 158.80 2377.04 133.19 C 2404.25 133.33 2431.47 133.20 2458.68 133.26 C 2429.02 174.47 2399.29 215.63 2369.60 256.82 C 2400.17 299.48 2430.85 342.08 2461.40 384.76 C 2433.27 384.77 2405.13 384.69 2377.01 384.80 C 2359.50 358.30 2342.04 331.77 2324.66 305.19 C 2307.15 331.64 2289.78 358.20 2272.34 384.70 C 2244.90 384.80 2217.46 384.77 2190.03 384.71 C 2220.05 342.64 2250.07 300.57 2280.16 258.54 C 2251.64 216.72 2222.92 175.03 2194.34 133.25 Z" />
<path fill="#003d5b" opacity="1.00" d=" M 2474.77 133.24 C 2481.10 133.26 2487.43 133.24 2493.77 133.26 C 2493.72 134.34 2493.70 135.43 2493.71 136.51 C 2491.20 136.50 2488.73 136.50 2486.26 136.50 C 2486.23 142.41 2486.25 148.32 2486.25 154.24 C 2485.31 154.24 2483.45 154.25 2482.52 154.26 C 2482.47 148.34 2482.50 142.43 2482.49 136.51 C 2479.88 136.50 2477.30 136.49 2474.72 136.47 C 2474.73 135.66 2474.76 134.05 2474.77 133.24 Z" />
<path fill="#003d5b" opacity="1.00" d=" M 2496.49 133.27 C 2497.54 133.26 2498.62 133.25 2499.73 133.25 C 2502.78 137.93 2505.84 142.61 2508.91 147.29 C 2511.94 142.59 2514.88 137.82 2518.01 133.17 C 2518.76 133.19 2520.25 133.23 2521.00 133.25 L 2521.00 154.26 C 2519.82 154.25 2518.67 154.25 2517.55 154.24 C 2517.32 149.65 2517.20 145.06 2517.19 140.46 C 2514.59 144.38 2512.04 148.33 2509.52 152.29 C 2505.03 149.69 2503.44 144.26 2500.25 140.41 C 2500.24 145.02 2500.24 149.63 2500.25 154.24 C 2499.31 154.25 2497.44 154.25 2496.50 154.25 C 2496.48 147.26 2496.50 140.26 2496.49 133.27 Z" />
</g>
</svg>
