<?xml version="1.0" encoding="utf-8"?>
<!-- Generator: Adobe Illustrator 28.0.0, SVG Export Plug-In . SVG Version: 6.00 Build 0)  -->
<svg version="1.1" id="Layer_1" xmlns="http://www.w3.org/2000/svg" xmlns:xlink="http://www.w3.org/1999/xlink" x="0px" y="0px"
	 viewBox="0 0 807.5 142.7" style="enable-background:new 0 0 807.5 142.7;" xml:space="preserve">
<style type="text/css">
	.st0{fill:#112A2F;}
	.st1{fill-rule:evenodd;clip-rule:evenodd;fill:#112A2F;}
</style>
<path class="st0" d="M19.9,85.2c0.2,3.7,1.8,6.4,4.8,8.2c2.9,1.6,6.8,2.5,11.6,2.5c4.8,0,8.7-0.8,11.2-2.3c2.6-1.6,3.9-3.7,3.9-6.4
	c0-1.8-1.3-2.9-3.7-3.5c-2.4-0.6-5.5-1.2-9.4-1.6c-3.7-0.4-7.7-1-12.2-1.4c-4.4-0.6-8.5-1.6-12.2-3.1C10.3,76,7.2,73.9,4.6,71
	C2,68,0.9,64.1,0.9,59.1c0-3.7,0.7-6.8,2-9.6s3.1-4.9,5.2-6.6c2-1.8,4.4-3.3,7-4.3c2.6-1.2,5.3-1.9,7.9-2.5c2.6-0.6,5.2-1,7.5-1.2
	c2.4-0.2,4.2-0.4,5.7-0.4c3.7,0,7.4,0.4,11.2,1.4c3.9,1,7.5,2.5,10.7,4.5c3.1,1.9,5.9,4.5,8.1,7.6c2.2,3.1,3.3,6.6,3.3,10.9L51.9,61
	c-0.2-3.3-1.7-5.7-4.4-7c-2.8-1.4-6.6-2.1-11.8-2.1c-4.6,0-8.3,0.6-10.9,1.8C22.3,54.8,21,56.9,21,60c0,1.6,1.3,2.7,3.7,3.3
	c2.6,0.6,5.7,1.2,9.4,1.6c3.7,0.4,7.7,0.8,12.2,1.4c4.4,0.6,8.5,1.6,12.1,3.1c3.7,1.6,6.8,3.7,9.4,6.4c2.4,2.7,3.7,6.6,3.7,11.7
	c0,3.9-0.7,7.2-2,10.1c-1.3,2.7-3.1,5.1-5.2,7c-2.2,1.8-4.6,3.3-7.2,4.5c-2.8,1.2-5.3,1.9-8.1,2.5c-2.8,0.6-5.2,1-7.7,1.2
	c-2.4,0.2-4.4,0.2-5.9,0.2c-1.3,0-3.1-0.2-5.5-0.4c-2.2-0.2-4.8-0.8-7.4-1.4c-2.6-0.6-5.2-1.6-7.9-2.7c-2.6-1.2-5-2.7-7.2-4.5
	s-4-4.1-5.3-6.8c-1.3-2.7-2-6-2-9.6L19.9,85.2z"/>
<path class="st0" d="M78.8,24.8V4.7H99V25H78.8V24.8z M98.7,35.3v76.6H79V35.3H98.7z"/>
<path class="st0" d="M171.6,54.4c0.9-2.7,2-5.5,3.3-8c1.3-2.5,2.8-4.7,4.4-6.4c1.7-1.8,3.5-3.3,5.7-4.3c2-1,4.4-1.6,7.2-1.6
	c3.3,0,6.3,0.6,9,1.9c2.8,1.4,5.2,3.5,7,6.2c2,2.9,3.5,6.6,4.6,11.1c1.1,4.5,1.7,9.9,1.7,16.4v42.1h-20.2V78
	c0-6.2-1.1-10.9-3.3-13.8c-2.2-2.9-5-4.5-8.3-4.5c-1.5,0-2.9,0.4-4.2,1.4c-1.5,0.8-2.8,2.1-3.9,4.1c-1.3,1.8-2.2,4.3-2.9,7
	c-0.7,2.9-1.1,6.2-1.1,10.1v29.8h-20.2V78c0-6.4-1.1-11.1-3.1-14c-2-2.9-4.6-4.3-7.9-4.3c-1.3,0-2.8,0.4-4.2,1.4
	c-1.5,0.8-2.9,2.1-4.2,4.1c-1.3,1.8-2.4,4.1-3.3,7c-0.9,2.7-1.3,6.2-1.3,10.1v29.8h-19.9V35.3h20.1v18.1c0,1.8,0,3.7-0.2,5.8
	c-0.2,2.1-0.4,4.1-0.7,5.7l0.2,0.2c0.4-1.8,0.7-3.7,0.9-5.7c0.4-2.1,0.7-3.9,1.3-5.7c2.2-6.8,5.2-11.7,8.7-14.8
	c3.7-3.1,7.4-4.7,11-4.7c3.3,0,6.3,0.6,8.7,1.8c2.4,1.2,4.4,2.7,6.1,4.7c1.7,2,3.1,4.1,4.1,6.4c1.1,2.5,1.8,4.9,2.4,7
	c0.6,1.8,0.7,3.7,0.7,5.7c0,2.1,0,4.1-0.2,5.7h0.2c0-1.8,0.4-3.7,0.6-5.7C170.1,57.9,171,56.1,171.6,54.4z"/>
<path class="st0" d="M244.5,46c1.3-1.8,2.9-3.5,4.8-4.9c1.8-1.4,3.7-2.5,5.7-3.7c2-1.2,4.1-1.9,6.1-2.3c2-0.6,4.2-0.8,6.3-0.8
	c10.5,0,18.6,3.3,24.1,9.7s8.3,16.4,8.3,29.6s-2.8,23.2-8.3,29.4c-5.5,6.4-13.6,9.6-24.1,9.7c-2,0-4-0.2-6.3-0.8
	c-2-0.6-4.2-1.4-6.1-2.3c-2-1-3.9-2.3-5.7-3.7c-1.8-1.6-3.3-3.1-4.8-5.1c-0.9-1.2-1.8-2.7-2.4-4.7c-0.7-1.9-1.1-3.7-1.7-5.5h-0.2
	c0.4,1.8,0.7,3.7,1.1,5.7c0.4,1.9,0.6,3.9,0.6,5.7v40.5h-20.1l-0.2-107.4h20.2v9.6c0,1.8-0.2,3.7-0.6,5.7c-0.4,1.9-0.7,3.9-1.1,5.5
	l0.2,0.2c0.4-1.6,0.9-3.5,1.7-5.5C242.6,48.7,243.5,47.2,244.5,46z M262.1,94.3c3.5,0,6.3-0.6,8.7-1.8c2.2-1.2,4-2.7,5.3-4.7
	c1.3-1.9,2.4-4.1,2.9-6.4c0.6-2.5,0.7-5.1,0.7-7.8s-0.4-5.3-0.9-7.6c-0.6-2.3-1.5-4.3-2.9-6c-1.5-1.8-3.1-3.1-5.3-4.1
	c-2.2-1-5.2-1.6-8.5-1.6c-3.1,0-5.9,0.4-8.5,1.4c-2.6,1-4.6,2.3-6.4,4.1c-1.8,1.8-3.1,3.9-4,6.2c-0.9,2.3-1.5,4.9-1.5,7.6
	s0.6,5.3,1.5,7.8c0.9,2.5,2.2,4.7,4,6.6c1.8,1.9,3.9,3.5,6.4,4.7C256.2,93.8,259,94.3,262.1,94.3z"/>
<path class="st0" d="M306.9,0H327v111.9h-20.1V0z"/>
<path class="st0" d="M334.3,24.8V4.7h20.2V25h-20.2V24.8z M354.2,35.3v76.6h-19.7V35.3H354.2z"/>
<path class="st0" d="M471.8,35.3h21.4l-21.4,76.6H440l-11.4-51.3c-0.4-1.8-0.6-3.7-0.7-5.7c-0.2-2.1-0.4-4.1-0.4-5.7h-0.2
	c0,1.8,0,3.7-0.2,5.7c-0.2,2.1-0.4,4.1-0.9,5.7l-10.9,51.3h-32.2l-21.4-76.6h21.5l14.2,52c0.4,1.4,0.7,2.9,0.9,4.7
	c0.2,1.8,0.4,3.3,0.4,4.9h0.2c0-1.6,0-3.1,0.2-5.1c0-1.8,0.4-3.3,0.6-4.9l11.2-51.8h32.8l11.6,52.2c0.4,1.4,0.6,2.9,0.6,4.3
	c0,1.4,0.2,2.5,0.2,3.5c0,0.6,0,1.2,0,1.8h0.2c0-1.6,0.2-3.1,0.4-4.9c0.2-1.8,0.6-3.3,0.9-4.7L471.8,35.3z"/>
<path class="st1" d="M567.8,91c2-4.9,3.1-10.7,3.1-17.3c0-6.8-1.1-12.5-3.1-17.2c-2.2-5.1-5-9-8.5-12.3c-3.5-3.1-7.5-5.7-12.3-7.2
	c-4.8-1.8-9.8-2.5-15.1-2.5c-5.2,0-10.1,0.8-14.9,2.3c-4.8,1.6-8.8,3.9-12.5,7.2c-3.7,3.3-6.6,7.4-8.7,12.3
	c-2,4.9-3.1,10.7-3.1,17.3c0,6.6,0.9,12.5,3.1,17.3c2.2,4.9,5,9,8.7,12.3c3.7,3.1,7.7,5.7,12.5,7.2c4.6,1.6,9.6,2.3,14.9,2.3
	c5.3,0,10.3-0.8,15.1-2.3c4.6-1.6,8.8-3.9,12.3-7.2C562.8,100,565.7,95.9,567.8,91z M529.2,100.3c-2.7,0.1-5.6-0.6-8.5-2
	c-2.7-1.5-5-3.3-6.8-5.8s-2.9-5.2-3.4-8.3c-0.6-3-0.7-6.3-0.1-9.6c0.6-3.3,1.5-6.6,3.1-10c1.5-3.4,3.4-6.3,5.5-9
	c2.2-2.7,4.5-4.6,7.1-6.1c2.5-1.3,5.2-2.1,8.1-2.3c2.9-0.2,5.6,0.6,8.5,2s5.2,3.3,6.9,5.9c1.7,2.3,2.9,5.2,3.3,8.3
	c0.4,3.1,0.4,6.3,0,9.7c-0.5,3.4-1.4,6.7-2.9,9.9c-1.4,3.3-3.2,6.2-5.4,8.7c-2.2,2.5-4.5,4.6-7.2,6
	C534.6,99.5,532,100.2,529.2,100.3z"/>
<path class="st0" d="M625.7,55.5h-19.5c-1.7,0-3.1,0.2-4,0.6c-1.1,0.4-1.8,1-2.4,2c-0.6,1-0.9,2.1-1.3,3.9c-0.2,1.8-0.4,3.9-0.4,6.4
	v43.7h-20.1V58.7c0-4.1,0.4-7.6,1.1-10.5c0.7-2.9,1.8-5.3,3.3-7.2c1.5-2,3.3-3.3,5.7-4.3c2.4-1,5.2-1.4,8.7-1.4h29.1v20.3H625.7z"/>
<path class="st0" d="M679.1,35.3h29.1L678,65.1l32,46.6h-8.7v0.2l-0.2-0.2h-16.6l-21.7-31.8l-9.6,9.6v22.6h-20.3V4.7h20.3L653,55.9
	c0,1.8-0.2,3.5-0.7,5.7c-0.4,1.9-0.9,3.7-1.7,5.3l0.2,0.2c0.7-1.6,1.5-3.1,2.4-4.7c0.9-1.6,2-2.9,3.1-3.9L679.1,35.3z"/>
<path class="st0" d="M729.9,85.2c0.2,3.7,1.8,6.4,4.8,8.2c2.9,1.6,6.8,2.5,11.6,2.5s8.7-0.8,11.2-2.3c2.6-1.6,3.9-3.7,3.9-6.4
	c0-1.8-1.3-2.9-3.7-3.5c-2.4-0.6-5.5-1.2-9.4-1.6c-3.7-0.4-7.7-1-12.1-1.4c-4.4-0.6-8.5-1.6-12.2-3.1c-3.7-1.6-6.8-3.7-9.4-6.6
	c-2.6-2.9-3.7-6.8-3.7-11.9c0-3.7,0.7-6.8,2-9.6c1.3-2.7,3.1-4.9,5.2-6.6c2-1.8,4.4-3.3,7-4.3c2.6-1.2,5.3-1.9,7.9-2.5
	c2.6-0.6,5.2-1,7.5-1.2c2.4-0.2,4.2-0.4,5.7-0.4c3.7,0,7.4,0.4,11.2,1.4c3.9,1,7.4,2.5,10.7,4.5c3.3,1.9,5.9,4.5,8.1,7.6
	c2.2,3.1,3.3,6.6,3.3,10.9L762,61c-0.2-3.3-1.7-5.7-4.4-7c-2.8-1.4-6.6-2.1-11.8-2.1c-4.6,0-8.3,0.6-10.9,1.8
	c-2.6,1.2-3.9,3.3-3.9,6.4c0,1.6,1.3,2.7,3.7,3.3c2.6,0.6,5.7,1.2,9.4,1.6s7.7,0.8,12.1,1.4c4.4,0.6,8.5,1.6,12.2,3.1
	c3.7,1.6,6.8,3.7,9.4,6.4c2.4,2.7,3.7,6.6,3.7,11.7c0,3.9-0.7,7.2-2,10.1c-1.3,2.7-3.1,5.1-5.2,7c-2.2,1.8-4.6,3.3-7.2,4.5
	c-2.8,1.2-5.3,1.9-8.1,2.5c-2.8,0.6-5.2,1-7.7,1.2c-2.4,0.2-4.4,0.2-5.9,0.2c-1.3,0-3.1-0.2-5.5-0.4c-2.2-0.2-4.8-0.8-7.4-1.4
	c-2.6-0.6-5.2-1.6-7.9-2.7c-2.6-1.2-5-2.7-7.2-4.5c-2.2-1.8-4.1-4.1-5.3-6.8c-1.3-2.7-2-5.8-2.2-9.4L729.9,85.2z"/>
<path class="st0" d="M792.7,34.1h-2.4V27H787v-2.3h9V27h-2.9c-0.1,0-0.3,0-0.4-0.1c-0.1-0.1-0.2-0.1-0.3-0.3
	c0.1,0.1,0.2,0.2,0.2,0.4c0.1,0.1,0.1,0.3,0.1,0.4L792.7,34.1z"/>
<path class="st0" d="M805,24.7h2.5v9.4h-2.4v-3.5c0-0.3,0-0.6,0-0.9c0-0.3,0.1-0.6,0.2-0.9c-0.1,0.3-0.1,0.6-0.2,0.9
	c-0.1,0.3-0.2,0.6-0.4,0.8l-1.7,3.6h-1.5l-1.7-3.6c-0.1-0.3-0.3-0.5-0.3-0.8c-0.1-0.3-0.2-0.6-0.2-0.9c0,0.3,0.1,0.6,0.1,0.9
	c0,0.3,0,0.6,0,0.9v3.5h-2.4v-9.4h2.5l2.6,5.5c0,0.1,0,0.1,0,0.2c0,0.1,0,0.2,0,0.2c0-0.1,0-0.2,0-0.2c0-0.1,0-0.1,0-0.2L805,24.7z"
	/>
</svg>
